<svg width="200" height="160" viewBox="0 0 200 160" fill="none" xmlns="http://www.w3.org/2000/svg">
  <!-- Background horizontal streaks -->
  <rect x="20" y="62" width="160" height="10" rx="5" fill="#1D9E75" fill-opacity="0.06"/>
  <rect x="35" y="78" width="130" height="8" rx="4" fill="#1D9E75" fill-opacity="0.08"/>
  <rect x="50" y="92" width="100" height="6" rx="3" fill="#1D9E75" fill-opacity="0.05"/>
  <rect x="10" y="48" width="80" height="6" rx="3" fill="#1D9E75" fill-opacity="0.04"/>
  <rect x="130" y="48" width="60" height="6" rx="3" fill="#1D9E75" fill-opacity="0.04"/>

  <!-- Receipt illustration -->
  <g transform="translate(60, 20)">
    <!-- Receipt body -->
    <path d="M10 8C10 5.79086 11.7909 4 14 4H66C68.2091 4 70 5.79086 70 8V100L62 94L54 100L46 94L38 100L30 94L22 100L14 94L10 97V8Z" stroke="#1D9E75" stroke-width="2.5" stroke-linecap="round" stroke-linejoin="round" fill="white"/>
    
    <!-- Rupee symbol on receipt -->
    <text x="40" y="52" text-anchor="middle" font-family="system-ui, -apple-system, sans-serif" font-size="32" font-weight="600" fill="#1D9E75" opacity="0.7">₹</text>
    
    <!-- List lines -->
    <path d="M22 68H58" stroke="#1D9E75" stroke-width="1.5" stroke-linecap="round" opacity="0.3"/>
    <path d="M22 76H50" stroke="#1D9E75" stroke-width="1.5" stroke-linecap="round" opacity="0.3"/>
    <path d="M22 84H42" stroke="#1D9E75" stroke-width="1.5" stroke-linecap="round" opacity="0.3"/>
  </g>

  <!-- Sparkle accents -->
  <g stroke="#1D9E75" stroke-width="1.5" stroke-linecap="round">
    <path d="M145 25L148 28M148 25L145 28"/>
    <path d="M155 40L157 42M157 40L155 42"/>
    <circle cx="50" cy="115" r="2" fill="#1D9E75" fill-opacity="0.15"/>
    <circle cx="155" cy="105" r="1.5" fill="#1D9E75" fill-opacity="0.2"/>
  </g>
</svg>
