<svg width="200" height="160" viewBox="0 0 200 160" fill="none" xmlns="http://www.w3.org/2000/svg">
  <!-- Background horizontal streaks -->
  <rect x="20" y="62" width="160" height="10" rx="5" fill="#1D9E75" fill-opacity="0.06"/>
  <rect x="35" y="78" width="130" height="8" rx="4" fill="#1D9E75" fill-opacity="0.08"/>
  <rect x="50" y="92" width="100" height="6" rx="3" fill="#1D9E75" fill-opacity="0.05"/>
  <rect x="10" y="48" width="80" height="6" rx="3" fill="#1D9E75" fill-opacity="0.04"/>
  <rect x="130" y="48" width="60" height="6" rx="3" fill="#1D9E75" fill-opacity="0.04"/>

  <!-- Dashboard clipboard -->
  <g transform="translate(55, 15)">
    <!-- Clipboard body -->
    <rect x="5" y="15" width="75" height="85" rx="8" stroke="#1D9E75" stroke-width="2.5" fill="white"/>
    <!-- Clipboard clip -->
    <path d="M30 15V10C30 7 33 5 40 5C47 5 50 7 50 10V15" stroke="#1D9E75" stroke-width="2.5" stroke-linecap="round" stroke-linejoin="round"/>
    <rect x="28" y="8" width="24" height="10" rx="3" stroke="#1D9E75" stroke-width="2" fill="white"/>

    <!-- Mini chart inside -->
    <path d="M18 70L30 55L42 62L55 40L68 48" stroke="#1D9E75" stroke-width="2" stroke-linecap="round" stroke-linejoin="round"/>
    
    <!-- Axis lines -->
    <path d="M18 78H68" stroke="#1D9E75" stroke-width="1.5" stroke-linecap="round" opacity="0.2"/>
    <path d="M18 35V78" stroke="#1D9E75" stroke-width="1.5" stroke-linecap="round" opacity="0.2"/>
    
    <!-- Check mark -->
    <path d="M52 25L57 30L67 20" stroke="#1D9E75" stroke-width="2" stroke-linecap="round" stroke-linejoin="round" opacity="0.4"/>
  </g>

  <!-- Sparkle accents -->
  <g stroke="#1D9E75" stroke-width="1.5" stroke-linecap="round">
    <path d="M148 18L151 21M151 18L148 21"/>
    <path d="M42 118L44 120M44 118L42 120"/>
    <circle cx="158" cy="105" r="2" fill="#1D9E75" fill-opacity="0.15"/>
    <circle cx="38" cy="22" r="1.5" fill="#1D9E75" fill-opacity="0.2"/>
  </g>
</svg>
