<svg width="200" height="160" viewBox="0 0 200 160" fill="none" xmlns="http://www.w3.org/2000/svg">
  <!-- Background horizontal streaks -->
  <rect x="20" y="62" width="160" height="10" rx="5" fill="#1D9E75" fill-opacity="0.06"/>
  <rect x="35" y="78" width="130" height="8" rx="4" fill="#1D9E75" fill-opacity="0.08"/>
  <rect x="50" y="92" width="100" height="6" rx="3" fill="#1D9E75" fill-opacity="0.05"/>
  <rect x="10" y="48" width="80" height="6" rx="3" fill="#1D9E75" fill-opacity="0.04"/>
  <rect x="130" y="48" width="60" height="6" rx="3" fill="#1D9E75" fill-opacity="0.04"/>

  <!-- Calendar with repeat arrow -->
  <g transform="translate(55, 18)">
    <!-- Calendar body -->
    <rect x="5" y="15" width="70" height="65" rx="8" stroke="#1D9E75" stroke-width="2.5" fill="white"/>
    <!-- Calendar header bar -->
    <path d="M5 30H75" stroke="#1D9E75" stroke-width="2.5"/>
    <!-- Calendar pegs -->
    <path d="M25 10V22" stroke="#1D9E75" stroke-width="2.5" stroke-linecap="round"/>
    <path d="M55 10V22" stroke="#1D9E75" stroke-width="2.5" stroke-linecap="round"/>
    
    <!-- Repeat/sync arrows inside calendar -->
    <path d="M28 52C28 44.268 34.268 38 42 38C46.5 38 50.5 40.2 53 43.5" stroke="#1D9E75" stroke-width="2" stroke-linecap="round"/>
    <path d="M53 43.5L53 38M53 43.5L48 43.5" stroke="#1D9E75" stroke-width="2" stroke-linecap="round" stroke-linejoin="round"/>
    <path d="M56 52C56 59.732 49.732 66 42 66C37.5 66 33.5 63.8 31 60.5" stroke="#1D9E75" stroke-width="2" stroke-linecap="round"/>
    <path d="M31 60.5L31 66M31 60.5L36 60.5" stroke="#1D9E75" stroke-width="2" stroke-linecap="round" stroke-linejoin="round"/>
  </g>

  <!-- Sparkle accents -->
  <g stroke="#1D9E75" stroke-width="1.5" stroke-linecap="round">
    <path d="M145 22L148 25M148 22L145 25"/>
    <path d="M50 118L52 120M52 118L50 120"/>
    <circle cx="155" cy="105" r="2" fill="#1D9E75" fill-opacity="0.15"/>
    <circle cx="40" cy="28" r="1.5" fill="#1D9E75" fill-opacity="0.2"/>
  </g>
</svg>
