<svg width="200" height="160" viewBox="0 0 200 160" fill="none" xmlns="http://www.w3.org/2000/svg">
  <!-- Background horizontal streaks -->
  <rect x="20" y="62" width="160" height="10" rx="5" fill="#1D9E75" fill-opacity="0.06"/>
  <rect x="35" y="78" width="130" height="8" rx="4" fill="#1D9E75" fill-opacity="0.08"/>
  <rect x="50" y="92" width="100" height="6" rx="3" fill="#1D9E75" fill-opacity="0.05"/>
  <rect x="10" y="48" width="80" height="6" rx="3" fill="#1D9E75" fill-opacity="0.04"/>
  <rect x="130" y="48" width="60" height="6" rx="3" fill="#1D9E75" fill-opacity="0.04"/>

  <!-- Tag / Category illustration -->
  <g transform="translate(58, 22)">
    <!-- Main tag shape -->
    <path d="M10 15L45 8L80 35L55 80L10 70Z" stroke="#1D9E75" stroke-width="2.5" stroke-linecap="round" stroke-linejoin="round" fill="white"/>
    <!-- Tag hole -->
    <circle cx="30" cy="25" r="5" stroke="#1D9E75" stroke-width="2" fill="white"/>
    
    <!-- Stacked tags behind (offset) -->
    <path d="M18 20L50 14L82 38" stroke="#1D9E75" stroke-width="1.5" stroke-linecap="round" stroke-linejoin="round" opacity="0.2"/>
    <path d="M14 25L46 19L78 42" stroke="#1D9E75" stroke-width="1.5" stroke-linecap="round" stroke-linejoin="round" opacity="0.1"/>

    <!-- Lines on tag -->
    <path d="M30 45H60" stroke="#1D9E75" stroke-width="1.5" stroke-linecap="round" opacity="0.3"/>
    <path d="M28 55H52" stroke="#1D9E75" stroke-width="1.5" stroke-linecap="round" opacity="0.3"/>
  </g>

  <!-- Sparkle accents -->
  <g stroke="#1D9E75" stroke-width="1.5" stroke-linecap="round">
    <path d="M150 18L153 21M153 18L150 21"/>
    <path d="M40 118L42 120M42 118L40 120"/>
    <circle cx="160" cy="102" r="2" fill="#1D9E75" fill-opacity="0.15"/>
    <circle cx="35" cy="28" r="1.5" fill="#1D9E75" fill-opacity="0.2"/>
  </g>
</svg>
